<svg width="50" height="50" viewBox="0 0 50 50" fill="none" xmlns="http://www.w3.org/2000/svg">
<path d="M25 8.33329L20.6022 15.663C19.6998 17.167 19.2486 17.919 19.2486 18.75C19.2486 19.5809 19.6998 20.3329 20.6022 21.8369L24.5713 28.452C24.7627 28.7712 24.8585 28.9307 25 28.9307C25.1415 28.9307 25.2373 28.7712 25.4287 28.452L29.3978 21.8369C30.3002 20.3329 30.7514 19.5809 30.7514 18.75C30.7514 17.919 30.3002 17.167 29.3978 15.663L25 8.33329ZM25 8.33329V4.16663" stroke="#33363F" stroke-width="2"/>
<path d="M42.0005 26.246L33.4539 26.1022C31.7002 26.0727 30.8233 26.058 30.1037 26.4734C29.3841 26.8889 28.9584 27.6557 28.1071 29.1892L24.3628 35.9341C24.1822 36.2594 24.0918 36.4221 24.1626 36.5447C24.2334 36.6673 24.4194 36.6704 24.7915 36.6767L32.5049 36.8064C34.2586 36.8359 35.1355 36.8507 35.8551 36.4352C36.5747 36.0197 37.0004 35.253 37.8517 33.7195L42.0005 26.246ZM42.0005 26.246L45.6089 24.1627" stroke="#33363F" stroke-width="2"/>
<path d="M7.99949 26.246L16.5461 26.1022C18.2998 26.0727 19.1767 26.058 19.8963 26.4734C20.6159 26.8889 21.0416 27.6557 21.8929 29.1892L25.6372 35.9341C25.8178 36.2594 25.9082 36.4221 25.8374 36.5447C25.7666 36.6673 25.5806 36.6704 25.2085 36.6767L17.4951 36.8064C15.7414 36.8359 14.8645 36.8507 14.1449 36.4352C13.4253 36.0197 12.9996 35.253 12.1483 33.7195L7.99949 26.246ZM7.99949 26.246L4.39105 24.1627" stroke="#33363F" stroke-width="2"/>
<path d="M25 31.25V46.875" stroke="#33363F" stroke-width="2"/>
</svg>
