<svg width="50" height="50" viewBox="0 0 50 50" fill="none" xmlns="http://www.w3.org/2000/svg">
<path fill-rule="evenodd" clip-rule="evenodd" d="M21.75 6.25C20.0931 6.25 18.75 7.59315 18.75 9.25V24.4997C18.75 24.8142 18.6 25.108 18.3578 25.3087C16.0521 27.2194 14.5833 30.1048 14.5833 33.3333C14.5833 39.0863 19.247 43.75 25 43.75C30.7529 43.75 35.4166 39.0863 35.4166 33.3333C35.4166 30.1048 33.9479 27.2194 31.6421 25.3087C31.3999 25.108 31.25 24.8142 31.25 24.4997V9.25C31.25 7.59315 29.9068 6.25 28.25 6.25H21.75ZM29.1666 33.3333C29.1666 35.6345 27.3012 37.5 25 37.5C22.6988 37.5 20.8333 35.6345 20.8333 33.3333C20.8333 31.0321 22.6988 29.1667 25 29.1667C27.3012 29.1667 29.1666 31.0321 29.1666 33.3333Z" fill="#222222"/>
</svg>
